# xmcd CD database file generated by OrangeCD 5.2
#
# Track frame offsets:
#	150
#	27772
#	54564
#	82643
#	105175
#	152326
#	165250
#	180977
#	198047
#	212916
#	235277
#	276566
#
# Disc length: 4609 seconds
#
# Revision: 0
# Processed by: cddbd v1.5.1PL0 Copyright (c) Steve Scherf et al.
# Submitted via: OrangeCD 5.2
#
DISCID=8411ff0c
DTITLE=Clapton, Eric - Pickin In The Garden NYC 6/30/2004
DYEAR=2004
DGENRE=Blues
TTITLE0=Let It Rain
TTITLE1=Hootchie Cootchie Man
TTITLE2=Walk Out In The Rain
TTITLE3=I Want A Little Girl
TTITLE4=I Shot the Sheriff
TTITLE5=Me and The Devil Blues
TTITLE6=They're Red Hot
TTITLE7=Milkcow Calf Blues
TTITLE8=If I Had Possession Over Judgement Day
TTITLE9=Kind Hearted Woman
TTITLE10=Got to Get Better In A Little While
TTITLE11=Have You Ever Loved A Woman
EXTD=
EXTT0=
EXTT1=
EXTT2=
EXTT3=
EXTT4=
EXTT5=
EXTT6=
EXTT7=
EXTT8=
EXTT9=
EXTT10=
EXTT11=
PLAYORDER=
